<?xml version="1.0" encoding="utf-8"?>
<!-- Generator: Adobe Illustrator 18.0.0, SVG Export Plug-In . SVG Version: 6.00 Build 0)  -->
<!DOCTYPE svg PUBLIC "-//W3C//DTD SVG 1.1//EN" "http://www.w3.org/Graphics/SVG/1.1/DTD/svg11.dtd">
<svg version="1.1" id="Layer_1" xmlns="http://www.w3.org/2000/svg" xmlns:xlink="http://www.w3.org/1999/xlink" x="0px" y="0px"
	 viewBox="0 0 882 294" enable-background="new 0 0 882 294" xml:space="preserve">
<g>
	<g>
		<g>
			<polygon fill="#009EFF" points="327.053,120.151 311.859,210.57 104.77,272.681 102.6,292.284 325.53,225.423 344.078,115.045 
							"/>
		</g>
		<g>
			<polygon fill="#009EFF" points="222.561,110.378 241.109,0 11.631,68.826 -0.368,177.239 			"/>
		</g>
		<g>
			<polygon fill="#009EFF" points="303.434,201.797 321.982,91.42 92.504,160.245 80.504,268.659 			"/>
		</g>
		<g>
			<polygon fill="#009EFF" points="245.033,33.801 230.818,118.391 24.532,180.261 21.728,205.59 244.657,138.728 263.205,28.351 
							"/>
		</g>
	</g>
	<g>
		<g>
			<path d="M409.268,30.851l-7.352,11.077c0,0-4.038-0.207-8.177-0.207c0,0-1.659,12.939-3.314,28.468
				c-1.551,15.529-3.21,33.127-3.21,33.127h-14.492c0,0,2.174-17.598,3.728-33.127c1.656-15.529,2.692-28.468,2.692-28.468
				c-6.521,0-13.664,0.31-13.664,0.31l6.313-11.18H409.268z"/>
			<path d="M428.317,30.851c0,0-1.447,10.87-3.415,30.021h12.009c1.965-19.151,2.793-30.021,2.793-30.021h14.495
				c0,0-1.346,10.559-3.933,35.198c-2.591,24.535-3.624,37.267-3.624,37.267h-14.492c0,0,1.656-12.939,3.621-32.092h-12.006
				c-1.968,19.152-2.9,32.092-2.9,32.092h-14.906c0,0,1.656-12.732,4.243-37.267c2.588-24.639,3.314-35.198,3.314-35.198H428.317z"
				/>
			<path d="M493.23,30.851l-7.87,11.077c0,0-4.761-0.207-10.145-0.207l-1.965,19.151c7.662,0,15.32-0.207,15.32-0.207l-6.831,10.766
				c0,0-4.452-0.207-9.63-0.207l-2.174,21.222c8.698,0,17.497-0.207,17.497-0.207l-6.938,11.077h-25.569
				c0,0,2.278-18.323,4.142-36.232c1.968-18.323,3.415-36.232,3.415-36.232H493.23z"/>
		</g>
		<g>
			<path d="M451.318,116.342l-14.412,21.714c0,0-7.915-0.406-16.028-0.406c0,0-3.251,25.365-6.497,55.805
				c-3.041,30.44-6.292,64.937-6.292,64.937H379.68c0,0,4.261-34.497,7.308-64.937c3.245-30.44,5.277-55.805,5.277-55.805
				c-12.783,0-26.786,0.607-26.786,0.607l12.374-21.915H451.318z"/>
			<path d="M488.657,116.342c0,0-2.837,21.308-6.695,58.849h23.541c3.852-37.541,5.475-58.849,5.475-58.849h28.415
				c0,0-2.638,20.698-7.711,68.996c-5.078,48.094-7.104,73.053-7.104,73.053H496.17c0,0,3.245-25.365,7.098-62.908h-23.535
				c-3.858,37.544-5.685,62.908-5.685,62.908h-29.22c0,0,3.245-24.959,8.318-73.053c5.072-48.298,6.497-68.996,6.497-68.996H488.657
				z"/>
			<path d="M588.71,115.326c21.107,0,36.528,8.726,36.528,29.833c0,19.277-10.145,30.437-23.541,37.742
				c0,0,3.45,16.236,8.726,36.732c4.057,16.233,9.742,37.742,9.742,37.742l-31.047,2.031l-13.799-59.864
				c0,0-1.424,12.987-2.843,26.786c-1.623,15.421-3.245,32.063-3.245,32.063h-28.415c0,0,4.261-34.091,8.119-71.635
				c3.654-33.887,6.695-70.415,6.695-70.415S567.808,115.326,588.71,115.326z M577.345,182.901c0,0,3.047-0.607,8.522-2.23
				c7.308-2.233,11.365-16.846,11.365-27.195c0-13.594-7.302-15.626-12.783-15.626c-1.016,0-1.418,0-2.638,0.204L577.345,182.901z"
				/>
			<path d="M673.131,116.342c0,0-6.491,58.037-11.16,102.682c0,0.811-0.204,1.827-0.204,2.638c0,8.928,4.261,12.377,11.16,12.377
				c2.031,0,4.261-0.201,6.497-1.217c6.292-58.239,11.767-116.48,11.767-116.48h28.409c0,0-4.261,34.091-7.506,64.937
				c-4.057,39.166-7.506,77.113-7.506,77.113h-28.211c0,0,0.811-5.884,1.424-11.566c0,0-8.119,7.711-11.972,10.956
				c-0.613,0.61-4.261,2.233-10.758,2.233c-17.248,0-22.525-10.755-22.525-25.975c0-2.84,0.204-6.494,0.409-8.726
				c0.607-5.884,2.837-22.931,5.072-44.034c3.041-29.22,6.491-64.937,6.491-64.937H673.131z"/>
			<path d="M764.253,115.326c11.972,0,25.77,5.682,25.77,24.556v2.638l-27.597,12.987v-2.031c0-3.855-0.607-11.972-6.491-12.783
				c-2.44,7.509-3.45,12.987-3.45,18.67c0,7.101,2.434,9.943,6.491,11.972c18.468,9.132,25.77,16.031,25.77,33.484
				c0,12.176-5.072,31.047-9.129,35.107l-25.163,20.292c-1.623,0.406-4.057,0.607-5.884,0.607c-12.38,0-24.556-6.494-24.556-24.349
				c0-1.626,0-3.45,0.204-5.277l27.802-10.553c0,0,0,14.409,6.088,15.22c2.638-6.494,3.852-12.582,3.852-18.871
				c0-8.931-3.45-12.176-13.39-17.858c-11.365-6.494-18.06-15.83-18.06-29.019c0-12.786,3.852-23.541,10.547-36.324L764.253,115.326
				z"/>
			<path d="M880.737,116.342l-14.406,21.714c0,0-7.915-0.406-16.034-0.406c0,0-3.245,25.365-6.491,55.805
				c-3.047,30.44-6.292,64.937-6.292,64.937h-28.409c0,0,4.261-34.497,7.302-64.937c3.251-30.44,5.277-55.805,5.277-55.805
				c-12.783,0-26.786,0.607-26.786,0.607l12.38-21.915H880.737z"/>
		</g>
	</g>
</g>
</svg>
