<?xml version="1.0" encoding="utf-8"?>
<!-- Generator: Adobe Illustrator 18.0.0, SVG Export Plug-In . SVG Version: 6.00 Build 0)  -->
<!DOCTYPE svg PUBLIC "-//W3C//DTD SVG 1.1//EN" "http://www.w3.org/Graphics/SVG/1.1/DTD/svg11.dtd">
<svg version="1.1" id="Layer_1" xmlns="http://www.w3.org/2000/svg" xmlns:xlink="http://www.w3.org/1999/xlink" x="0px" y="0px"
	 viewBox="0 98 256 60" enable-background="new 0 98 256 60" xml:space="preserve">
<g>
	<path d="M99.097,114.535l-3.12,4.7c0,0-1.713-0.088-3.469-0.088c0,0-0.704,5.491-1.406,12.08
		c-0.658,6.589-1.362,14.056-1.362,14.056h-6.15c0,0,0.922-7.467,1.582-14.056c0.702-6.59,1.142-12.08,1.142-12.08
		c-2.767,0-5.799,0.132-5.799,0.132l2.679-4.744L99.097,114.535L99.097,114.535z"/>
	<path d="M107.18,114.535c0,0-0.614,4.613-1.449,12.739h5.096c0.834-8.126,1.185-12.739,1.185-12.739h6.151
		c0,0-0.571,4.48-1.669,14.936c-1.099,10.41-1.538,15.814-1.538,15.814h-6.15c0,0,0.702-5.491,1.536-13.618h-5.095
		c-0.834,8.127-1.229,13.618-1.229,13.618h-6.325c0,0,0.702-5.402,1.8-15.814c1.098-10.455,1.406-14.936,1.406-14.936
		S107.18,114.535,107.18,114.535z"/>
	<path d="M134.724,114.535l-3.339,4.7c0,0-2.021-0.088-4.305-0.088l-0.834,8.126c3.251,0,6.501-0.088,6.501-0.088l-2.899,4.568
		c0,0-1.889-0.088-4.087-0.088l-0.922,9.005c3.69,0,7.424-0.088,7.424-0.088l-2.944,4.7H118.47c0,0,0.967-7.775,1.757-15.374
		c0.835-7.775,1.449-15.374,1.449-15.374h13.048V114.535z"/>
</g>
<g>
	<path d="M162.801,114.535l-3.12,4.7c0,0-1.713-0.088-3.469-0.088c0,0-0.704,5.491-1.406,12.08
		c-0.658,6.589-1.362,14.056-1.362,14.056h-6.15c0,0,0.922-7.467,1.582-14.056c0.702-6.589,1.143-12.08,1.143-12.08
		c-2.767,0-5.799,0.132-5.799,0.132l2.679-4.744L162.801,114.535L162.801,114.535z"/>
	<path d="M170.884,114.535c0,0-0.614,4.613-1.449,12.739h5.096c0.834-8.126,1.185-12.739,1.185-12.739h6.151
		c0,0-0.571,4.48-1.669,14.936c-1.099,10.41-1.538,15.814-1.538,15.814h-6.15c0,0,0.702-5.491,1.536-13.618h-5.095
		c-0.835,8.127-1.231,13.618-1.231,13.618h-6.325c0,0,0.702-5.402,1.8-15.814c1.098-10.455,1.406-14.936,1.406-14.936
		S170.884,114.535,170.884,114.535z"/>
	<path d="M192.542,114.314c4.568,0,7.907,1.889,7.907,6.457c0,4.173-2.196,6.588-5.096,8.169c0,0,0.746,3.514,1.889,7.951
		c0.878,3.513,2.109,8.169,2.109,8.169l-6.721,0.44l-2.987-12.959c0,0-0.309,2.811-0.616,5.799c-0.351,3.338-0.702,6.94-0.702,6.94
		h-6.151c0,0,0.922-7.38,1.757-15.507c0.791-7.336,1.449-15.242,1.449-15.242S188.017,114.314,192.542,114.314z M190.082,128.942
		c0,0,0.66-0.132,1.845-0.483c1.582-0.484,2.46-3.646,2.46-5.887c0-2.943-1.58-3.383-2.767-3.383c-0.22,0-0.307,0-0.571,0.044
		L190.082,128.942z"/>
	<path d="M210.816,114.535c0,0-1.405,12.563-2.416,22.227c0,0.176-0.044,0.395-0.044,0.571c0,1.932,0.922,2.68,2.416,2.68
		c0.44,0,0.922-0.043,1.406-0.264c1.362-12.607,2.547-25.214,2.547-25.214h6.15c0,0-0.922,7.38-1.624,14.056
		c-0.878,8.478-1.624,16.693-1.624,16.693h-6.106c0,0,0.176-1.273,0.309-2.504c0,0-1.757,1.669-2.591,2.372
		c-0.133,0.132-0.922,0.484-2.328,0.484c-3.734,0-4.876-2.328-4.876-5.623c0-0.615,0.044-1.406,0.088-1.889
		c0.132-1.273,0.614-4.964,1.098-9.532c0.658-6.325,1.405-14.056,1.405-14.056L210.816,114.535L210.816,114.535z"/>
	<path d="M230.541,114.314c2.591,0,5.578,1.23,5.578,5.316v0.571l-5.974,2.811v-0.44c0-0.835-0.132-2.591-1.405-2.767
		c-0.528,1.625-0.746,2.811-0.746,4.041c0,1.537,0.527,2.152,1.405,2.591c3.998,1.976,5.578,3.47,5.578,7.248
		c0,2.635-1.098,6.721-1.976,7.599l-5.447,4.392c-0.351,0.088-0.878,0.132-1.273,0.132c-2.68,0-5.316-1.406-5.316-5.271
		c0-0.352,0-0.746,0.044-1.143l6.018-2.284c0,0,0,3.119,1.318,3.295c0.571-1.406,0.834-2.724,0.834-4.085
		c0-1.933-0.746-2.635-2.899-3.865c-2.46-1.406-3.91-3.427-3.91-6.281c0-2.768,0.834-5.096,2.283-7.863L230.541,114.314z"/>
	<path d="M255.756,114.535l-3.118,4.7c0,0-1.713-0.088-3.471-0.088c0,0-0.702,5.491-1.405,12.08
		c-0.66,6.589-1.362,14.056-1.362,14.056h-6.15c0,0,0.922-7.467,1.58-14.056c0.704-6.589,1.143-12.08,1.143-12.08
		c-2.767,0-5.799,0.132-5.799,0.132l2.68-4.744L255.756,114.535L255.756,114.535z"/>
</g>
<g>
	<path fill="#009EFF" d="M68.141,137.335"/>
</g>
<g>
	<g>
		<path fill="#009EFF" d="M21.652,155.507"/>
	</g>
	<g>
		<g>
			<polygon fill="#009EFF" points="52.264,105.624 49.237,122.472 5.304,134.796 4.706,139.841 52.184,126.523 56.135,104.537 			
				"/>
		</g>
	</g>
	<g>
		<g>
			<polygon fill="#009EFF" points="69.732,122.823 66.496,140.833 22.392,153.205 21.929,157.11 69.407,143.792 73.358,121.806 			
				"/>
		</g>
	</g>
	<g>
		<polygon fill="#009EFF" points="47.478,120.876 51.429,98.89 2.556,112.6 0,134.194 		"/>
	</g>
	<g>
		<polygon fill="#009EFF" points="64.702,139.086 68.652,117.1 19.78,130.809 17.224,152.404 		"/>
	</g>
</g>
</svg>
