<?xml version="1.0" encoding="utf-8"?>
<!-- Generator: Adobe Illustrator 18.0.0, SVG Export Plug-In . SVG Version: 6.00 Build 0)  -->
<!DOCTYPE svg PUBLIC "-//W3C//DTD SVG 1.1//EN" "http://www.w3.org/Graphics/SVG/1.1/DTD/svg11.dtd">
<svg version="1.1" id="Layer_1" xmlns="http://www.w3.org/2000/svg" xmlns:xlink="http://www.w3.org/1999/xlink" x="0px" y="0px"
	 viewBox="0 0 272 64" enable-background="new 0 0 272 64" xml:space="preserve">
<g>
	<g>
		<path d="M20.002,17.693l-3.315,4.994c0,0-1.82-0.093-3.686-0.093c0,0-0.748,5.834-1.494,12.835
			c-0.699,7.001-1.447,14.935-1.447,14.935H3.526c0,0,0.98-7.934,1.681-14.935C5.953,28.427,6.42,22.594,6.42,22.594
			c-2.94,0-6.161,0.14-6.161,0.14l2.846-5.04H20.002z"/>
		<path d="M28.59,17.693c0,0-0.652,4.901-1.54,13.535h5.414c0.886-8.634,1.259-13.535,1.259-13.535h6.535
			c0,0-0.607,4.76-1.773,15.869c-1.168,11.061-1.634,16.802-1.634,16.802h-6.534c0,0,0.746-5.834,1.632-14.469h-5.413
			C25.65,44.53,25.23,50.364,25.23,50.364h-6.72c0,0,0.746-5.74,1.913-16.802c1.167-11.108,1.494-15.869,1.494-15.869H28.59z"/>
		<path d="M57.856,17.693l-3.548,4.994c0,0-2.147-0.093-4.574-0.093l-0.886,8.634c3.454,0,6.907-0.093,6.907-0.093l-3.08,4.854
			c0,0-2.007-0.093-4.342-0.093l-0.98,9.568c3.921,0,7.888-0.093,7.888-0.093l-3.128,4.994H40.586c0,0,1.027-8.261,1.867-16.335
			c0.887-8.261,1.54-16.335,1.54-16.335H57.856z"/>
	</g>
	<g>
		<path d="M172.976,17.693l-3.315,4.994c0,0-1.82-0.093-3.686-0.093c0,0-0.748,5.834-1.494,12.835
			c-0.699,7.001-1.447,14.935-1.447,14.935H156.5c0,0,0.98-7.934,1.681-14.935c0.746-7.001,1.214-12.835,1.214-12.835
			c-2.94,0-6.161,0.14-6.161,0.14l2.846-5.04H172.976z"/>
		<path d="M181.564,17.693c0,0-0.652,4.901-1.54,13.535h5.414c0.886-8.634,1.259-13.535,1.259-13.535h6.535
			c0,0-0.607,4.76-1.773,15.869c-1.168,11.061-1.634,16.802-1.634,16.802h-6.534c0,0,0.746-5.834,1.632-14.469h-5.413
			c-0.887,8.635-1.308,14.469-1.308,14.469h-6.72c0,0,0.746-5.74,1.913-16.802c1.167-11.108,1.494-15.869,1.494-15.869H181.564z"/>
		<path d="M204.576,17.459c4.854,0,8.401,2.007,8.401,6.861c0,4.434-2.333,7-5.414,8.68c0,0,0.793,3.734,2.007,8.448
			c0.933,3.733,2.241,8.68,2.241,8.68l-7.141,0.467l-3.174-13.769c0,0-0.328,2.987-0.654,6.161
			c-0.373,3.547-0.746,7.374-0.746,7.374h-6.535c0,0,0.98-7.841,1.867-16.476c0.84-7.794,1.54-16.195,1.54-16.195
			S199.768,17.459,204.576,17.459z M201.962,33.001c0,0,0.701-0.14,1.96-0.513c1.681-0.514,2.614-3.874,2.614-6.255
			c0-3.127-1.679-3.594-2.94-3.594c-0.234,0-0.326,0-0.607,0.047L201.962,33.001z"/>
		<path d="M223.992,17.693c0,0-1.493,13.348-2.567,23.616c0,0.187-0.047,0.42-0.047,0.607c0,2.053,0.98,2.847,2.567,2.847
			c0.467,0,0.98-0.046,1.494-0.28c1.447-13.395,2.706-26.79,2.706-26.79h6.534c0,0-0.98,7.841-1.726,14.935
			c-0.933,9.008-1.726,17.736-1.726,17.736h-6.488c0,0,0.187-1.353,0.328-2.66c0,0-1.867,1.773-2.753,2.52
			c-0.141,0.14-0.98,0.514-2.474,0.514c-3.967,0-5.181-2.474-5.181-5.974c0-0.653,0.047-1.494,0.094-2.007
			c0.14-1.353,0.652-5.274,1.167-10.128c0.699-6.72,1.493-14.935,1.493-14.935H223.992z"/>
		<path d="M244.95,17.459c2.753,0,5.927,1.307,5.927,5.648v0.607l-6.347,2.987v-0.467c0-0.887-0.14-2.753-1.493-2.94
			c-0.561,1.727-0.793,2.987-0.793,4.294c0,1.633,0.56,2.287,1.493,2.753c4.248,2.1,5.927,3.687,5.927,7.701
			c0,2.8-1.167,7.141-2.1,8.074l-5.787,4.667c-0.373,0.093-0.933,0.14-1.353,0.14c-2.847,0-5.648-1.494-5.648-5.6
			c0-0.374,0-0.793,0.047-1.214l6.394-2.427c0,0,0,3.314,1.4,3.501c0.607-1.494,0.886-2.894,0.886-4.34
			c0-2.054-0.793-2.8-3.08-4.107c-2.614-1.494-4.154-3.641-4.154-6.674c0-2.941,0.886-5.414,2.426-8.354L244.95,17.459z"/>
		<path d="M271.741,17.693l-3.313,4.994c0,0-1.82-0.093-3.688-0.093c0,0-0.746,5.834-1.493,12.835
			c-0.701,7.001-1.447,14.935-1.447,14.935h-6.534c0,0,0.98-7.934,1.679-14.935c0.748-7.001,1.214-12.835,1.214-12.835
			c-2.94,0-6.161,0.14-6.161,0.14l2.847-5.04H271.741z"/>
	</g>
	<g>
		<path fill="#009EFF" d="M72.4,41.918"/>
	</g>
	<g>
		<path fill="#009EFF" d="M89.917,61.226"/>
	</g>
	<g>
		<g>
			<polygon fill="#009EFF" points="122.442,8.225 119.226,26.127 72.547,39.221 71.912,44.581 122.357,30.431 126.555,7.071 			"/>
		</g>
	</g>
	<g>
		<g>
			<polygon fill="#009EFF" points="141.002,26.499 137.564,45.635 90.703,58.78 90.212,62.929 140.657,48.779 144.855,25.419 			"/>
		</g>
	</g>
	<g>
		<polygon fill="#009EFF" points="117.357,24.431 121.555,1.071 69.628,15.637 66.912,38.581 		"/>
	</g>
	<g>
		<polygon fill="#009EFF" points="135.658,43.779 139.855,20.419 87.928,34.985 85.212,57.929 		"/>
	</g>
</g>
</svg>
