<?xml version="1.0" encoding="utf-8"?>
<!-- Generator: Adobe Illustrator 18.0.0, SVG Export Plug-In . SVG Version: 6.00 Build 0)  -->
<!DOCTYPE svg PUBLIC "-//W3C//DTD SVG 1.1//EN" "http://www.w3.org/Graphics/SVG/1.1/DTD/svg11.dtd">
<svg version="1.1" id="Layer_1" xmlns="http://www.w3.org/2000/svg" xmlns:xlink="http://www.w3.org/1999/xlink" x="0px" y="0px"
	 viewBox="0 0 272 62" enable-background="new 0 0 272 62" xml:space="preserve">
<g>
	<g>
		<path fill="#FFFFFF" d="M19.126,17.14l-3.211,4.838c0,0-1.763-0.09-3.571-0.09c0,0-0.725,5.652-1.447,12.434
			C10.22,41.104,9.495,48.79,9.495,48.79h-6.33c0,0,0.949-7.686,1.628-14.468c0.723-6.783,1.175-12.434,1.175-12.434
			C3.12,21.888,0,22.024,0,22.024l2.757-4.882L19.126,17.14L19.126,17.14z"/>
		<path fill="#FFFFFF" d="M27.446,17.14c0,0-0.632,4.748-1.492,13.112h5.245c0.858-8.364,1.22-13.112,1.22-13.112h6.331
			c0,0-0.588,4.611-1.718,15.373C35.9,43.228,35.449,48.79,35.449,48.79h-6.33c0,0,0.723-5.652,1.581-14.017h-5.244
			c-0.858,8.365-1.265,14.017-1.265,14.017h-6.51c0,0,0.723-5.561,1.853-16.277c1.131-10.761,1.447-15.373,1.447-15.373H27.446z"/>
		<path fill="#FFFFFF" d="M55.797,17.14l-3.437,4.838c0,0-2.08-0.09-4.431-0.09l-0.858,8.364c3.346,0,6.691-0.09,6.691-0.09
			l-2.984,4.702c0,0-1.944-0.09-4.206-0.09l-0.949,9.269c3.798,0,7.642-0.09,7.642-0.09l-3.03,4.838H39.067
			c0,0,0.995-8.003,1.809-15.825c0.859-8.003,1.492-15.825,1.492-15.825L55.797,17.14L55.797,17.14L55.797,17.14z"/>
	</g>
	<g>
		<path fill="#FFFFFF" d="M167.319,17.14l-3.211,4.838c0,0-1.763-0.09-3.571-0.09c0,0-0.725,5.652-1.447,12.434
			c-0.677,6.782-1.402,14.468-1.402,14.468h-6.33c0,0,0.949-7.686,1.628-14.468c0.723-6.782,1.176-12.434,1.176-12.434
			c-2.848,0-5.968,0.136-5.968,0.136l2.757-4.882L167.319,17.14L167.319,17.14z"/>
		<path fill="#FFFFFF" d="M175.639,17.14c0,0-0.632,4.748-1.492,13.112h5.245c0.858-8.364,1.22-13.112,1.22-13.112h6.331
			c0,0-0.588,4.611-1.718,15.373c-1.132,10.715-1.583,16.277-1.583,16.277h-6.33c0,0,0.723-5.652,1.581-14.017h-5.244
			c-0.859,8.365-1.267,14.017-1.267,14.017h-6.51c0,0,0.723-5.561,1.853-16.277c1.131-10.761,1.447-15.373,1.447-15.373H175.639z"/>
		<path fill="#FFFFFF" d="M197.932,16.913c4.702,0,8.138,1.944,8.138,6.647c0,4.295-2.26,6.781-5.245,8.409
			c0,0,0.768,3.617,1.944,8.184c0.904,3.616,2.171,8.409,2.171,8.409l-6.918,0.452l-3.075-13.339c0,0-0.318,2.894-0.634,5.968
			c-0.361,3.436-0.723,7.144-0.723,7.144h-6.331c0,0,0.949-7.596,1.809-15.961c0.814-7.55,1.492-15.689,1.492-15.689
			S193.274,16.913,197.932,16.913z M195.4,31.97c0,0,0.679-0.136,1.899-0.497c1.628-0.498,2.532-3.753,2.532-6.06
			c0-3.029-1.627-3.482-2.848-3.482c-0.227,0-0.316,0-0.588,0.046L195.4,31.97z"/>
		<path fill="#FFFFFF" d="M216.741,17.14c0,0-1.446,12.931-2.487,22.878c0,0.181-0.046,0.407-0.046,0.588
			c0,1.989,0.949,2.758,2.487,2.758c0.452,0,0.949-0.045,1.447-0.271c1.402-12.976,2.621-25.953,2.621-25.953h6.33
			c0,0-0.949,7.596-1.672,14.468c-0.904,8.726-1.672,17.182-1.672,17.182h-6.285c0,0,0.181-1.311,0.318-2.577
			c0,0-1.809,1.718-2.667,2.441c-0.137,0.136-0.949,0.498-2.397,0.498c-3.843,0-5.019-2.397-5.019-5.787
			c0-0.633,0.046-1.447,0.091-1.944c0.136-1.311,0.632-5.109,1.131-9.812c0.677-6.51,1.446-14.468,1.446-14.468L216.741,17.14
			L216.741,17.14z"/>
		<path fill="#FFFFFF" d="M237.044,16.913c2.667,0,5.742,1.266,5.742,5.471v0.588l-6.149,2.894v-0.452
			c0-0.859-0.136-2.667-1.446-2.848c-0.543,1.673-0.768,2.894-0.768,4.16c0,1.582,0.542,2.216,1.446,2.667
			c4.115,2.034,5.742,3.572,5.742,7.46c0,2.712-1.131,6.918-2.034,7.822l-5.606,4.521c-0.361,0.09-0.904,0.136-1.311,0.136
			c-2.758,0-5.471-1.447-5.471-5.425c0-0.362,0-0.768,0.046-1.176l6.194-2.351c0,0,0,3.21,1.356,3.392
			c0.588-1.447,0.858-2.804,0.858-4.204c0-1.99-0.768-2.712-2.984-3.979c-2.532-1.447-4.024-3.527-4.024-6.465
			c0-2.849,0.858-5.245,2.35-8.093L237.044,16.913z"/>
		<path fill="#FFFFFF" d="M262.998,17.14l-3.209,4.838c0,0-1.763-0.09-3.573-0.09c0,0-0.723,5.652-1.446,12.434
			c-0.679,6.782-1.402,14.468-1.402,14.468h-6.33c0,0,0.949-7.686,1.627-14.468c0.725-6.782,1.176-12.434,1.176-12.434
			c-2.848,0-5.968,0.136-5.968,0.136l2.758-4.882L262.998,17.14L262.998,17.14z"/>
	</g>
	<g>
		<path fill="#009EFF" d="M69.887,40.608"/>
	</g>
	<g>
		<path fill="#009EFF" d="M86.856,59.313"/>
	</g>
	<g>
		<g>
			<polygon fill="#009EFF" points="118.365,7.968 115.249,25.311 70.029,37.995 69.414,43.188 118.282,29.48 122.349,6.85 			"/>
		</g>
	</g>
	<g>
		<g>
			<polygon fill="#009EFF" points="136.345,25.671 133.014,44.209 87.618,56.943 87.142,60.962 136.01,47.255 140.077,24.625 			"/>
		</g>
	</g>
	<g>
		<polygon fill="#009EFF" points="113.439,23.668 117.505,1.038 67.201,15.148 64.57,37.375 		"/>
	</g>
	<g>
		<polygon fill="#009EFF" points="131.168,42.411 135.234,19.781 84.929,33.892 82.298,56.119 		"/>
	</g>
</g>
</svg>
