<?xml version="1.0" encoding="utf-8"?>
<!-- Generator: Adobe Illustrator 18.0.0, SVG Export Plug-In . SVG Version: 6.00 Build 0)  -->
<!DOCTYPE svg PUBLIC "-//W3C//DTD SVG 1.1//EN" "http://www.w3.org/Graphics/SVG/1.1/DTD/svg11.dtd">
<svg version="1.1" id="Layer_1" xmlns="http://www.w3.org/2000/svg" xmlns:xlink="http://www.w3.org/1999/xlink" x="0px" y="0px"
	 viewBox="0 0 150 80" enable-background="new 0 0 150 80" xml:space="preserve">
<g>
	<g>
		<g>
			<path fill="#076AAB" d="M6.592,52.738"/>
		</g>
		<g>
			<path fill="#076AAB" d="M27.632,77.535"/>
		</g>
		<g>
			<polygon fill="#076AAB" points="88.995,32.935 84.865,57.512 28.577,74.394 27.988,79.722 88.581,61.549 93.623,31.547 			"/>
		</g>
		<g>
			<polygon fill="#076AAB" points="60.594,30.279 65.635,0.277 3.262,18.985 0,48.452 			"/>
		</g>
		<g>
			<polygon fill="#076AAB" points="82.575,55.127 87.617,25.126 25.243,43.833 21.982,73.301 			"/>
		</g>
		<g>
			<polygon fill="#076AAB" points="66.702,9.465 62.838,32.457 6.768,49.273 6.006,56.158 66.6,37.985 71.641,7.983 			"/>
		</g>
	</g>
	<g>
		<g>
			<g>
				<path fill="#FFFFFF" d="M36.606,11.587l-1.767,2.662c0,0-0.97-0.05-1.965-0.05c0,0-0.399,3.109-0.796,6.84
					c-0.373,3.731-0.771,7.96-0.771,7.96h-3.482c0,0,0.522-4.228,0.896-7.96c0.398-3.731,0.647-6.84,0.647-6.84
					c-1.567,0-3.283,0.074-3.283,0.074l1.517-2.686H36.606z"/>
				<path fill="#FFFFFF" d="M41.183,11.587c0,0-0.348,2.612-0.821,7.213h2.886c0.472-4.602,0.671-7.213,0.671-7.213h3.483
					c0,0-0.323,2.537-0.945,8.457c-0.623,5.895-0.871,8.955-0.871,8.955h-3.482c0,0,0.398-3.109,0.87-7.711h-2.885
					c-0.473,4.602-0.697,7.711-0.697,7.711H35.81c0,0,0.398-3.059,1.02-8.955c0.622-5.92,0.796-8.457,0.796-8.457H41.183z"/>
				<path fill="#FFFFFF" d="M56.78,11.587l-1.891,2.662c0,0-1.144-0.05-2.438-0.05L51.979,18.8c1.841,0,3.681-0.05,3.681-0.05
					l-1.641,2.587c0,0-1.07-0.05-2.314-0.05l-0.522,5.099c2.09,0,4.204-0.05,4.204-0.05l-1.667,2.662h-6.144
					c0,0,0.547-4.403,0.995-8.706c0.473-4.403,0.821-8.706,0.821-8.706H56.78z"/>
			</g>
			<g>
				<path fill="#FFFFFF" d="M46.709,32.129l-3.463,5.217c0,0-1.902-0.097-3.851-0.097c0,0-0.781,6.095-1.561,13.409
					c-0.731,7.314-1.512,15.603-1.512,15.603h-6.826c0,0,1.024-8.289,1.756-15.603c0.78-7.314,1.268-13.409,1.268-13.409
					c-3.071,0-6.436,0.146-6.436,0.146l2.973-5.266H46.709z"/>
				<path fill="#FFFFFF" d="M55.681,32.129c0,0-0.682,5.12-1.609,14.14h5.656c0.926-9.02,1.316-14.14,1.316-14.14h6.828
					c0,0-0.634,4.973-1.853,16.578c-1.22,11.556-1.707,17.553-1.707,17.553h-6.826c0,0,0.78-6.095,1.705-15.116h-5.655
					c-0.927,9.021-1.366,15.116-1.366,15.116H45.15c0,0,0.78-5.997,1.999-17.553c1.219-11.605,1.561-16.578,1.561-16.578H55.681z"/>
				<path fill="#FFFFFF" d="M79.722,31.885c5.072,0,8.777,2.097,8.777,7.168c0,4.632-2.438,7.313-5.656,9.069
					c0,0,0.829,3.901,2.097,8.826c0.975,3.9,2.341,9.069,2.341,9.069l-7.46,0.488L76.505,52.12c0,0-0.342,3.121-0.683,6.436
					c-0.39,3.705-0.78,7.704-0.78,7.704h-6.828c0,0,1.024-8.191,1.951-17.212c0.878-8.142,1.609-16.919,1.609-16.919
					S74.7,31.885,79.722,31.885z M76.991,48.122c0,0,0.732-0.146,2.048-0.536c1.756-0.536,2.731-4.048,2.731-6.534
					c0-3.266-1.755-3.755-3.071-3.755c-0.244,0-0.341,0-0.634,0.049L76.991,48.122z"/>
				<path fill="#FFFFFF" d="M100.007,32.129c0,0-1.56,13.945-2.682,24.672c0,0.195-0.049,0.439-0.049,0.634
					c0,2.145,1.024,2.974,2.682,2.974c0.488,0,1.024-0.048,1.561-0.292c1.512-13.994,2.827-27.988,2.827-27.988h6.826
					c0,0-1.024,8.191-1.804,15.603c-0.975,9.411-1.804,18.529-1.804,18.529h-6.778c0,0,0.195-1.414,0.342-2.779
					c0,0-1.951,1.853-2.877,2.632c-0.147,0.147-1.024,0.536-2.585,0.536c-4.144,0-5.412-2.584-5.412-6.241
					c0-0.682,0.049-1.56,0.098-2.097c0.146-1.414,0.682-5.51,1.219-10.581c0.731-7.021,1.56-15.603,1.56-15.603H100.007z"/>
				<path fill="#FFFFFF" d="M121.902,31.885c2.877,0,6.192,1.365,6.192,5.9v0.634l-6.631,3.121v-0.488
					c0-0.926-0.146-2.877-1.56-3.071c-0.586,1.804-0.829,3.121-0.829,4.486c0,1.706,0.585,2.389,1.56,2.877
					c4.438,2.194,6.192,3.852,6.192,8.046c0,2.926-1.219,7.46-2.193,8.435l-6.046,4.876c-0.39,0.097-0.975,0.146-1.414,0.146
					c-2.975,0-5.9-1.56-5.9-5.851c0-0.391,0-0.829,0.049-1.268l6.68-2.536c0,0,0,3.462,1.463,3.657
					c0.634-1.56,0.926-3.023,0.926-4.534c0-2.146-0.829-2.926-3.217-4.291c-2.731-1.56-4.339-3.804-4.339-6.973
					c0-3.072,0.926-5.656,2.534-8.728L121.902,31.885z"/>
				<path fill="#FFFFFF" d="M149.89,32.129l-3.461,5.217c0,0-1.902-0.097-3.853-0.097c0,0-0.78,6.095-1.56,13.409
					c-0.732,7.314-1.512,15.603-1.512,15.603h-6.826c0,0,1.024-8.289,1.755-15.603c0.781-7.314,1.268-13.409,1.268-13.409
					c-3.071,0-6.436,0.146-6.436,0.146l2.975-5.266H149.89z"/>
			</g>
		</g>
	</g>
</g>
</svg>
