<?xml version="1.0" encoding="utf-8"?>
<!-- Generator: Adobe Illustrator 18.0.0, SVG Export Plug-In . SVG Version: 6.00 Build 0)  -->
<!DOCTYPE svg PUBLIC "-//W3C//DTD SVG 1.1//EN" "http://www.w3.org/Graphics/SVG/1.1/DTD/svg11.dtd">
<svg version="1.1" id="Layer_1" xmlns="http://www.w3.org/2000/svg" xmlns:xlink="http://www.w3.org/1999/xlink" x="0px" y="0px"
	 viewBox="0 0 1 1" enable-background="new 0 0 1 1" xml:space="preserve">
<g>
	<g>
		<path fill="#009EFF" d="M0.095,0.628"/>
	</g>
	<g>
		<path fill="#009EFF" d="M0.307,0.878"/>
	</g>
	<g>
		<polygon fill="#009EFF" points="0.925,0.429 0.883,0.676 0.316,0.846 0.31,0.9 0.921,0.717 0.971,0.415 		"/>
	</g>
	<g>
		<polygon fill="#009EFF" points="0.639,0.402 0.69,0.1 0.061,0.288 0.029,0.585 		"/>
	</g>
	<g>
		<polygon fill="#009EFF" points="0.86,0.652 0.911,0.35 0.283,0.539 0.25,0.835 		"/>
	</g>
	<g>
		<polygon fill="#009EFF" points="0.7,0.193 0.661,0.424 0.097,0.593 0.089,0.663 0.699,0.48 0.75,0.178 		"/>
	</g>
	<g>
		<g>
			<path fill="#FFFFFF" d="M0.628,0.289L0.585,0.353c0,0-0.024-0.001-0.048-0.001c0,0-0.01,0.075-0.019,0.166
				C0.509,0.609,0.499,0.711,0.499,0.711H0.415c0,0,0.013-0.103,0.022-0.193c0.01-0.091,0.016-0.166,0.016-0.166
				c-0.038,0-0.08,0.002-0.08,0.002l0.037-0.065C0.409,0.289,0.628,0.289,0.628,0.289z"/>
		</g>
	</g>
	<g>
		<path fill="#009EFF" d="M0.516,0.535c0.001-0.006,0.021-0.014,0.022-0.02c0.002-0.018,0.008-0.041-0.014-0.05L0.421,0.496
			C0.42,0.505,0.412,0.518,0.411,0.527C0.41,0.541,0.433,0.546,0.432,0.56L0.516,0.535z"/>
	</g>
</g>
</svg>
