<?xml version="1.0" encoding="utf-8"?>
<!-- Generator: Adobe Illustrator 18.0.0, SVG Export Plug-In . SVG Version: 6.00 Build 0)  -->
<!DOCTYPE svg PUBLIC "-//W3C//DTD SVG 1.1//EN" "http://www.w3.org/Graphics/SVG/1.1/DTD/svg11.dtd">
<svg version="1.1" id="Layer_1" xmlns="http://www.w3.org/2000/svg" xmlns:xlink="http://www.w3.org/1999/xlink" x="0px" y="0px"
	 viewBox="0 271 1280 738" enable-background="new 0 271 1280 738" xml:space="preserve">
<g>
	<g>
		<g>
			<g>
				<path fill="#076AAB" d="M56.252,718.88"/>
			</g>
			<g>
				<path fill="#076AAB" d="M235.793,930.482"/>
			</g>
			<g>
				<polygon fill="#076AAB" points="759.424,549.895 724.181,759.619 243.857,903.678 238.831,949.144 755.891,794.068 
					798.916,538.051 				"/>
			</g>
			<g>
				<polygon fill="#076AAB" points="517.069,527.23 560.085,271.213 27.836,430.855 0,682.307 				"/>
			</g>
			<g>
				<polygon fill="#076AAB" points="704.64,739.267 747.665,483.258 215.407,642.891 187.58,894.351 				"/>
			</g>
			<g>
				<polygon fill="#076AAB" points="569.19,349.617 536.218,545.816 57.754,689.312 51.251,748.064 568.32,592.988 611.336,336.971 
									"/>
			</g>
		</g>
		<g>
			<g>
				<g>
					<path fill="#FFFFFF" d="M312.371,367.725l-15.078,22.716c0,0-8.277-0.427-16.768-0.427c0,0-3.405,26.53-6.793,58.368
						c-3.183,31.838-6.579,67.925-6.579,67.925H237.44c0,0,4.454-36.079,7.646-67.925c3.396-31.838,5.521-58.368,5.521-58.368
						c-13.372,0-28.015,0.631-28.015,0.631l12.945-22.921L312.371,367.725L312.371,367.725z"/>
					<path fill="#FFFFFF" d="M351.428,367.725c0,0-2.97,22.289-7.006,61.551h24.627c4.028-39.27,5.726-61.551,5.726-61.551h29.722
						c0,0-2.756,21.649-8.064,72.166c-5.316,50.304-7.433,76.416-7.433,76.416h-29.713c0,0,3.396-26.53,7.424-65.801h-24.619
						c-4.036,39.27-5.948,65.801-5.948,65.801h-30.566c0,0,3.396-26.103,8.704-76.416c5.308-50.517,6.793-72.166,6.793-72.166
						S351.428,367.725,351.428,367.725z"/>
					<path fill="#FFFFFF" d="M484.523,367.725l-16.137,22.716c0,0-9.762-0.427-20.804-0.427l-4.028,39.262
						c15.71,0,31.411-0.427,31.411-0.427l-14.003,22.076c0,0-9.131-0.427-19.746-0.427l-4.454,43.511
						c17.835,0,35.874-0.427,35.874-0.427l-14.225,22.716h-52.429c0,0,4.668-37.572,8.491-74.291
						c4.036-37.572,7.006-74.291,7.006-74.291h63.044V367.725z"/>
				</g>
				<g>
					<path fill="#FFFFFF" d="M398.583,543.017l-29.551,44.518c0,0-16.23-0.828-32.862-0.828c0,0-6.665,52.011-13.321,114.423
						c-6.238,62.413-12.902,133.146-12.902,133.146h-58.249c0,0,8.738-70.733,14.985-133.146
						c6.656-62.413,10.82-114.423,10.82-114.423c-26.206,0-54.921,1.246-54.921,1.246l25.37-44.937H398.583z"/>
					<path fill="#FFFFFF" d="M475.145,543.017c0,0-5.82,43.691-13.73,120.661h48.265c7.902-76.971,11.23-120.661,11.23-120.661
						h58.266c0,0-5.41,42.436-15.812,141.466c-10.411,98.611-14.566,149.786-14.566,149.786h-58.249c0,0,6.656-52.011,14.549-128.99
						h-48.256c-7.91,76.979-11.657,128.99-11.657,128.99H385.28c0,0,6.656-51.174,17.058-149.786
						c10.402-99.029,13.321-141.466,13.321-141.466H475.145z"/>
					<path fill="#FFFFFF" d="M680.294,540.935c43.281,0,74.897,17.894,74.897,61.167c0,39.526-20.804,62.404-48.265,77.389
						c0,0,7.074,33.289,17.894,75.315c8.32,33.28,19.977,77.389,19.977,77.389l-63.659,4.164l-28.297-122.752
						c0,0-2.918,26.633-5.828,54.921c-3.328,31.616-6.656,65.741-6.656,65.741h-58.266c0,0,8.738-69.897,16.649-146.876
						c7.492-69.478,13.73-144.375,13.73-144.375S637.44,540.935,680.294,540.935z M656.99,679.491c0,0,6.246-1.246,17.476-4.574
						c14.984-4.574,23.305-34.543,23.305-55.757c0-27.87-14.976-32.043-26.206-32.043c-2.082,0-2.91,0-5.41,0.418L656.99,679.491z"
						/>
					<path fill="#FFFFFF" d="M853.393,543.017c0,0-13.312,118.997-22.886,210.534c0,1.664-0.418,3.746-0.418,5.41
						c0,18.304,8.738,25.378,22.886,25.378c4.164,0,8.738-0.41,13.32-2.492c12.902-119.415,24.124-238.831,24.124-238.831h58.249
						c0,0-8.738,69.897-15.394,133.146c-8.32,80.307-15.394,158.114-15.394,158.114H860.04c0,0,1.664-12.066,2.918-23.714
						c0,0-16.648,15.812-24.55,22.46c-1.254,1.254-8.738,4.574-22.059,4.574c-35.362,0-46.182-22.05-46.182-53.257
						c0-5.82,0.418-13.312,0.836-17.894c1.246-12.066,5.82-47.019,10.402-90.291c6.238-59.913,13.312-133.146,13.312-133.146h58.675
						V543.017z"/>
					<path fill="#FFFFFF" d="M1040.23,540.935c24.55,0,52.838,11.648,52.838,50.347v5.41l-56.584,26.633v-4.164
						c0-7.902-1.246-24.55-13.312-26.206c-5,15.394-7.074,26.633-7.074,38.281c0,14.558,4.992,20.386,13.312,24.55
						c37.871,18.722,52.839,32.87,52.839,68.659c0,24.969-10.402,63.659-18.714,71.979l-51.593,41.609
						c-3.328,0.828-8.32,1.246-12.066,1.246c-25.387,0-50.347-13.312-50.347-49.929c0-3.337,0-7.074,0.418-10.82l57.003-21.641
						c0,0,0,29.542,12.484,31.206c5.41-13.312,7.902-25.796,7.902-38.69c0-18.312-7.074-24.969-27.452-36.617
						c-23.305-13.312-37.026-32.461-37.026-59.503c0-26.214,7.902-48.265,21.623-74.479L1040.23,540.935z"/>
					<path fill="#FFFFFF" d="M1279.061,543.017l-29.534,44.518c0,0-16.23-0.828-32.879-0.828c0,0-6.656,52.011-13.312,114.423
						c-6.246,62.413-12.902,133.146-12.902,133.146h-58.249c0,0,8.738-70.733,14.976-133.146
						c6.665-62.413,10.82-114.423,10.82-114.423c-26.206,0-54.921,1.246-54.921,1.246l25.387-44.937H1279.061z"/>
				</g>
			</g>
		</g>
	</g>
	<g>
		<g>
			<path fill="#0069AA" d="M623.825,857.38c24.096,0,40.09,12.794,40.09,31.134c0,17.487-9.81,28.576-23.244,35.186
				c8.103,3.412,20.472,14.927,20.472,31.347c0,11.302-3.838,23.671-13.222,31.347c-9.169,7.465-28.575,21.325-32.413,21.325
				c-6.824,0-40.73,0-40.73,0s4.477-36.465,9.383-81.675c4.691-44.995,6.396-67.599,6.396-67.599S609.963,857.38,623.825,857.38z
				 M609.323,964.004c-1.067,10.236-1.919,20.045-1.919,20.045s3.412,1.066,8.957,1.066c3.624,0,5.971-0.64,8.529-1.706
				c3.198-6.184,4.479-12.794,4.479-19.406c0-10.236-3.626-20.472-17.913-20.472C611.456,943.532,610.389,953.768,609.323,964.004z
				 M615.934,901.095c-1.279,12.369-2.772,25.591-2.772,25.591c13.862-3.626,21.325-15.355,21.325-29.429
				c0-16.42-9.81-17.913-13.434-17.913c-1.707,0-2.56,0.214-2.56,0.214S617.001,890.22,615.934,901.095z"/>
		</g>
		<g>
			<path fill="#0069AA" d="M747.506,858.447L731.3,881.264c0,0-9.81-0.427-20.9-0.427l-4.052,39.451
				c15.781,0,31.561-0.426,31.561-0.426l-14.074,22.177c0,0-9.17-0.426-19.832-0.426l-4.479,43.716
				c17.913,0,36.039-0.427,36.039-0.427l-14.288,22.818h-52.673c0,0,4.693-37.745,8.531-74.637
				c4.052-37.746,7.038-74.637,7.038-74.637H747.506z"/>
		</g>
		<g>
			<path fill="#0069AA" d="M838.561,858.447l-15.141,22.818c0,0-8.317-0.427-16.846-0.427c0,0-3.412,26.656-6.824,58.643
				c-3.198,31.987-6.61,68.24-6.61,68.24h-29.856c0,0,4.479-36.253,7.677-68.24c3.412-31.987,5.545-58.643,5.545-58.643
				c-13.434,0-28.149,0.64-28.149,0.64l13.008-23.03H838.561z"/>
		</g>
		<g>
			<path fill="#0069AA" d="M888.675,857.38c0,0,2.984,52.032,6.61,95.536c2.133,26.869,4.905,53.738,4.905,53.738l-30.068,2.133
				c0,0-1.067-26.23-2.133-43.289h-23.458c-4.691,18.126-9.808,41.157-9.808,41.157l-24.523,2.133c0,0,8.103-25.804,16.632-55.871
				c11.943-42.437,25.591-94.469,25.591-94.469L888.675,857.38z M849.862,944.172h17.274l-3.838-51.18L849.862,944.172z"/>
		</g>
	</g>
</g>
</svg>
