<?xml version="1.0" encoding="utf-8"?>
<!-- Generator: Adobe Illustrator 18.0.0, SVG Export Plug-In . SVG Version: 6.00 Build 0)  -->
<!DOCTYPE svg PUBLIC "-//W3C//DTD SVG 1.1//EN" "http://www.w3.org/Graphics/SVG/1.1/DTD/svg11.dtd">
<svg version="1.1" id="Layer_1" xmlns="http://www.w3.org/2000/svg" xmlns:xlink="http://www.w3.org/1999/xlink" x="0px" y="0px"
	 viewBox="0 0 32 32" enable-background="new 0 0 32 32" xml:space="preserve">
<g>
	<path fill="#009EFF" d="M3.05,20.101"/>
</g>
<g>
	<path fill="#009EFF" d="M9.825,28.085"/>
</g>
<g>
	<polygon fill="#009EFF" points="29.582,13.725 28.252,21.638 10.129,27.074 9.939,28.79 29.449,22.938 31.072,13.279 	"/>
</g>
<g>
	<polygon fill="#009EFF" points="20.438,12.87 22.061,3.21 1.978,9.234 0.928,18.721 	"/>
</g>
<g>
	<polygon fill="#009EFF" points="27.515,20.871 29.138,11.211 9.056,17.234 8.006,26.722 	"/>
</g>
<g>
	<polygon fill="#009EFF" points="22.404,6.169 21.16,13.571 3.107,18.986 2.862,21.203 22.371,15.351 23.994,5.692 	"/>
</g>
<g>
	<path fill="#FFFFFF" d="M16.326,9.245c1.399,0,2.836,0.44,3.392,1.705c0.287,0.651,0.441,1.532,0.441,2.529
		c0,0.671-0.038,1.379-0.115,2.069c-0.172,1.592-0.69,4.045-0.92,4.6c-0.057,0.095-1.341,1.379-2.337,2.088
		c-0.518,0.365-0.843,0.518-1.783,0.518c-0.843,0-3.162,0-3.162,0s0.46-3.737,0.767-6.707c0.326-2.971,0.671-6.708,0.671-6.708
		C13.26,9.34,14.831,9.245,16.326,9.245z M15.157,16.048c-0.307,2.969-0.441,4.561-0.441,4.561s0.421,0.076,0.996,0.076
		c0.633,0,0.996-0.115,0.996-0.115c0.25-0.977,0.575-2.606,0.805-4.714c0.076-0.69,0.115-1.342,0.115-1.897
		c0-1.687-0.421-2.721-1.916-2.721C15.712,11.238,15.482,13.077,15.157,16.048z"/>
</g>
<g>
	<polygon fill="#009EFF" points="3.191,18.94 2.987,21.157 16,17.266 16,15.123 	"/>
</g>
</svg>
