<?xml version="1.0" encoding="utf-8"?>
<!-- Generator: Adobe Illustrator 18.0.0, SVG Export Plug-In . SVG Version: 6.00 Build 0)  -->
<!DOCTYPE svg PUBLIC "-//W3C//DTD SVG 1.1//EN" "http://www.w3.org/Graphics/SVG/1.1/DTD/svg11.dtd">
<svg version="1.1" id="Layer_1" xmlns="http://www.w3.org/2000/svg" xmlns:xlink="http://www.w3.org/1999/xlink" x="0px" y="0px"
	 viewBox="0 0 25 20" enable-background="new 0 0 25 20" xml:space="preserve">
<g>
	<g>
		<path fill="#009EFF" d="M2.375,13.207"/>
	</g>
	<g>
		<path fill="#009EFF" d="M7.672,19.449"/>
	</g>
	<g>
		<polygon fill="#076AAB" points="23.12,8.222 22.08,14.409 7.91,18.659 7.761,20 23.015,15.425 24.285,7.872 		"/>
	</g>
	<g>
		<polygon fill="#076AAB" points="15.97,7.553 17.239,0 1.536,4.709 0.715,12.128 		"/>
	</g>
	<g>
		<polygon fill="#076AAB" points="21.503,13.808 22.773,6.256 7.07,10.965 6.249,18.383 		"/>
	</g>
	<g>
		<polygon fill="#076AAB" points="17.507,2.313 16.535,8.101 2.419,12.335 2.227,14.068 17.482,9.493 18.751,1.94 		"/>
	</g>
	<g>
		<g>
			<path fill="#FFFFFF" d="M15.692,4.718L14.62,6.333c0,0-0.589-0.03-1.192-0.03c0,0-0.242,1.886-0.483,4.15
				c-0.226,2.264-0.468,4.829-0.468,4.829h-2.113c0,0,0.317-2.565,0.543-4.829c0.241-2.264,0.392-4.15,0.392-4.15
				c-0.951,0-1.992,0.045-1.992,0.045l0.92-1.63C10.227,4.718,15.692,4.718,15.692,4.718z"/>
		</g>
	</g>
	<g>
		<path fill="#076AAB" d="M12.904,10.866c0.014-0.138,0.527-0.356,0.54-0.493c0.049-0.459,0.191-1.022-0.354-1.238l-2.556,0.771
			c-0.023,0.224-0.235,0.546-0.26,0.78c-0.034,0.344,0.563,0.464,0.525,0.812L12.904,10.866z"/>
	</g>
</g>
</svg>
