<?xml version="1.0" encoding="utf-8"?>
<!-- Generator: Adobe Illustrator 18.0.0, SVG Export Plug-In . SVG Version: 6.00 Build 0)  -->
<!DOCTYPE svg PUBLIC "-//W3C//DTD SVG 1.1//EN" "http://www.w3.org/Graphics/SVG/1.1/DTD/svg11.dtd">
<svg version="1.1" xmlns="http://www.w3.org/2000/svg" xmlns:xlink="http://www.w3.org/1999/xlink" x="0px" y="0px"
	 viewBox="0 0 1280 1280" enable-background="new 0 0 1280 1280" xml:space="preserve">
<g id="Layer_3">
</g>
<g id="Layer_1">
	<g>
		<g>
			<g>
				<path fill="#009EFF" stroke="#FFFFFF" stroke-width="24" stroke-miterlimit="10" d="M121.6,803.84"/>
			</g>
			<g>
				<path fill="#009EFF" stroke="#FFFFFF" stroke-width="24" stroke-miterlimit="10" d="M392.96,1123.84"/>
			</g>
			<g>
				<g>
					<polygon fill="#009EFF" points="393.43,1073.665 1119.659,855.925 1173.413,539.799 1257.876,514.093 1189.496,927.107 
						382.871,1168.698 					"/>
					<path fill="#FFFFFF" d="M1242.88,531.2l-64,386.56L396.8,1152l7.68-69.12l725.76-217.6L1184,549.12L1242.88,531.2
						 M1272.871,496.985l-36.979,11.255l-58.88,17.92l-14.187,4.318l-2.486,14.619l-51.263,301.473l-711.49,213.321l-15.207,4.559
						l-1.753,15.779l-7.68,69.12l-4.005,36.047l34.745-10.406l782.08-234.24l14.346-4.297l2.446-14.774l64-386.56L1272.871,496.985
						L1272.871,496.985z"/>
				</g>
			</g>
			<g>
				<g>
					<polygon fill="#009EFF" points="67.003,359.426 898.244,110.979 828.511,523.911 23.252,765.488 					"/>
					<path fill="#FFFFFF" d="M883.2,128l-65.28,386.56L37.12,748.8l40.96-380.16L883.2,128 M913.289,93.958l-36.962,11.047
						l-805.12,240.64l-15.281,4.567l-1.708,15.857l-40.96,380.16l-3.873,35.948l34.632-10.39l780.8-234.24l14.285-4.286
						l2.484-14.706l65.28-386.56L913.289,93.958L913.289,93.958z"/>
				</g>
			</g>
			<g>
				<g>
					<polygon fill="#009EFF" points="351.192,680.713 1181.131,430.938 1111.391,843.911 306.063,1085.51 					"/>
					<path fill="#FFFFFF" d="M1166.08,448l-65.28,386.56L320,1068.8l42.24-378.88L1166.08,448 M1196.182,413.877l-37.019,11.141
						l-803.84,241.92l-15.179,4.568l-1.756,15.754l-42.24,378.88l-4.022,36.078l34.771-10.431l780.8-234.24l14.285-4.285
						l2.484-14.706l65.28-386.56L1196.182,413.877L1196.182,413.877z"/>
				</g>
			</g>
			<g>
				<g>
					<polygon fill="#009EFF" points="113.136,749.816 835.489,533.367 885.409,237.689 975.048,210.797 905.311,623.751 
						99.93,865.365 					"/>
					<path fill="#FFFFFF" d="M960,227.84L894.72,614.4l-780.8,234.24l10.24-89.6l721.92-216.32L896,247.04L960,227.84
						 M990.096,193.755l-36.992,11.098l-64,19.2l-14.286,4.286l-2.483,14.707l-47.436,280.968L117.271,736.05l-15.159,4.542
						l-1.797,15.722l-10.24,89.6l-4.134,36.176l34.875-10.463l780.8-234.24l14.285-4.286l2.483-14.706l65.28-386.56L990.096,193.755
						L990.096,193.755z"/>
				</g>
			</g>
			<g>
				<g>
					<g>
						<path fill="#FFFFFF" d="M517.59,922.08l1.704-13.503c0.167-1.316,16.753-133.011,28.125-246.731l0.012-0.116
							c9.922-90.291,16.825-169.021,19.367-199.111c-43.972,0.377-88.301,2.465-88.788,2.488l-21.792,1.038l61.604-108.224h308.537
							l-71.346,106.189l-6.713-0.279c-0.27-0.011-24.11-0.993-50.408-1.222c-3.602,27.97-13.719,108.666-22.911,201.613
							c-11.388,115.144-24.19,245.725-24.318,247.03l-1.062,10.829H517.59z"/>
						<path fill="#FFFFFF" d="M803.84,369.92l-55.04,81.92c0,0-30.72-1.28-61.44-1.28c0,0-12.8,96-24.32,212.48
							c-11.52,116.48-24.32,247.04-24.32,247.04H531.2c0,0,16.64-131.84,28.16-247.04c12.8-116.48,20.48-212.48,20.48-212.48
							c-48.64,0-102.4,2.56-102.4,2.56l47.36-83.2C526.047,369.92,803.84,369.92,803.84,369.92 M524.8,369.92
							c-0.003,0-0.004,0-0.004,0S524.797,369.92,524.8,369.92 M848.879,345.92H803.84H524.8h-0.004h-13.95l-6.903,12.127
							l-47.36,83.2l-21.585,37.919l43.584-2.074c0.435-0.021,36.155-1.703,75.133-2.314c-3.145,36.31-9.517,106.535-18.21,185.64
							l-0.013,0.117l-0.012,0.117c-11.356,113.558-27.924,245.107-28.09,246.423l-3.408,27.005H531.2h107.52h21.762l2.123-21.658
							c0.128-1.306,12.931-131.882,24.318-247.02c8.205-82.964,17.148-156.152,21.517-190.662
							c21.538,0.346,39.13,1.069,39.361,1.079l13.425,0.559l7.494-11.153l55.04-81.92L848.879,345.92L848.879,345.92z"/>
					</g>
				</g>
			</g>
			<g>
				<g>
					<path fill="#009EFF" d="M540.99,715.944c0.211-2.956-4.631-7.138-9.313-11.183c-7.864-6.792-18.635-16.094-17.566-31.058
						l0.017-0.235l0.026-0.234c0.825-7.426,4.076-15.372,7.22-23.058c2.52-6.159,5.125-12.528,5.58-16.622l0.875-7.881
						l143.501-43.189l3.934,1.609c33.537,13.72,29.17,46.771,26.279,68.642c-0.36,2.729-0.7,5.305-0.977,7.79l-0.036,0.324
						l-0.054,0.322c-1.494,8.969-10.124,14.722-19.261,20.813c-2.824,1.883-7.315,4.876-9.211,6.654l-0.921,5.524l-131.33,39.086
						L540.99,715.944z"/>
					<path fill="#FFFFFF" d="M670.72,595.2c28.16,11.52,20.48,40.96,17.92,64c-1.28,7.68-26.88,17.92-28.16,25.6l-107.52,32
						c1.28-17.92-28.16-24.32-26.88-42.24c1.28-11.52,11.52-28.16,12.8-39.68L670.72,595.2 M671.941,569.769l-8.138,2.449
						l-131.84,39.68l-15.185,4.57l-1.751,15.761c-0.27,2.427-2.972,9.032-4.76,13.403c-3.456,8.448-7.03,17.184-8.04,26.277
						l-0.052,0.469l-0.034,0.471c-1.498,20.966,13.019,33.503,21.692,40.994c1.522,1.315,3.599,3.109,4.958,4.463l-2.242,31.394
						l33.257-9.898l107.52-32l14.364-4.275l1.384-8.302c1.55-1.09,3.374-2.307,4.8-3.257c10.355-6.903,22.091-14.727,24.441-28.823
						l0.108-0.645l0.072-0.65c0.262-2.362,0.595-4.88,0.947-7.545c1.613-12.212,3.442-26.054,0.722-39.945
						c-3.804-19.428-15.684-33.735-34.356-41.373L671.941,569.769L671.941,569.769z"/>
				</g>
			</g>
		</g>
		<g>
			<g>
				<path fill="#009EFF" d="M121.6,803.84"/>
			</g>
			<g>
				<path fill="#009EFF" d="M392.96,1123.84"/>
			</g>
			<g>
				<polygon fill="#009EFF" points="1184,549.12 1130.24,865.28 404.48,1082.88 396.8,1152 1178.88,917.76 1242.88,531.2 				"/>
			</g>
			<g>
				<polygon fill="#009EFF" points="817.92,514.56 883.2,128 78.08,368.64 37.12,748.8 				"/>
			</g>
			<g>
				<polygon fill="#009EFF" points="1100.8,834.56 1166.08,448 362.24,689.92 320,1068.8 				"/>
			</g>
			<g>
				<polygon fill="#009EFF" points="896,247.04 846.08,542.72 124.16,759.04 113.92,848.64 894.72,614.4 960,227.84 				"/>
			</g>
			<g>
				<g>
					<path fill="#FFFFFF" d="M803.84,369.92l-55.04,81.92c0,0-30.72-1.28-61.44-1.28c0,0-12.8,96-24.32,212.48
						c-11.52,116.48-24.32,247.04-24.32,247.04H531.2c0,0,16.64-131.84,28.16-247.04c12.8-116.48,20.48-212.48,20.48-212.48
						c-48.64,0-102.4,2.56-102.4,2.56l47.36-83.2C523.52,369.92,803.84,369.92,803.84,369.92z"/>
				</g>
			</g>
			<g>
				<path fill="#009EFF" d="M660.48,684.8c1.28-7.68,26.88-17.92,28.16-25.6c2.56-23.04,10.24-52.48-17.92-64l-131.84,39.68
					c-1.28,11.52-11.52,28.16-12.8,39.68c-1.28,17.92,28.16,24.32,26.88,42.24L660.48,684.8z"/>
			</g>
		</g>
	</g>
</g>
</svg>
