<?xml version="1.0" encoding="utf-8"?>
<!-- Generator: Adobe Illustrator 18.0.0, SVG Export Plug-In . SVG Version: 6.00 Build 0)  -->
<!DOCTYPE svg PUBLIC "-//W3C//DTD SVG 1.1//EN" "http://www.w3.org/Graphics/SVG/1.1/DTD/svg11.dtd">
<svg version="1.1" id="Layer_1" xmlns="http://www.w3.org/2000/svg" xmlns:xlink="http://www.w3.org/1999/xlink" x="0px" y="0px"
	 viewBox="0 0 1280 1280" enable-background="new 0 0 1280 1280" xml:space="preserve">
<path fill="#222222" d="M640,34.095c-343.098,0-621.266,278.109-621.266,621.382c0,274.385,177.92,507.171,424.844,589.44
	c31.127,5.644,42.415-13.556,42.415-29.964c0-14.72-0.465-53.818-0.873-105.658c-172.8,37.527-209.222-83.258-209.222-83.258
	c-28.276-71.738-69.004-90.822-69.004-90.822c-56.378-38.633,4.305-37.818,4.305-37.818c62.371,4.422,95.185,64,95.185,64
	c55.389,94.953,145.396,67.433,180.829,51.607c5.585-40.204,21.644-67.433,39.389-83.025
	c-137.949-15.593-282.996-69.062-282.996-307.084c0-67.724,24.262-123.229,63.884-166.633
	c-6.284-15.825-27.578-78.953,6.167-164.538c0,0,52.073-16.698,170.822,63.709c49.571-13.789,102.749-20.713,155.52-20.945
	c52.771,0.233,105.949,7.156,155.462,20.945c118.691-80.407,170.764-63.709,170.764-63.709
	c33.862,85.585,12.509,148.713,6.109,164.48c39.738,43.404,63.884,98.909,63.884,166.633c0,238.72-145.338,291.258-283.694,306.618
	c22.284,19.2,42.182,57.018,42.182,115.025c0,83.084-0.756,150.051-0.756,170.415c0,16.582,11.229,35.898,42.764,29.789
	c246.633-82.211,424.495-314.938,424.495-589.207C1261.266,312.204,983.215,34.095,640,34.095"/>
</svg>
