<?xml version="1.0" encoding="utf-8"?>
<!-- Generator: Adobe Illustrator 18.0.0, SVG Export Plug-In . SVG Version: 6.00 Build 0)  -->
<!DOCTYPE svg PUBLIC "-//W3C//DTD SVG 1.1//EN" "http://www.w3.org/Graphics/SVG/1.1/DTD/svg11.dtd">
<svg version="1.1" id="Layer_1" xmlns="http://www.w3.org/2000/svg" xmlns:xlink="http://www.w3.org/1999/xlink" x="0px" y="0px"
	 viewBox="0 0 22 21" enable-background="new 0 0 22 21" xml:space="preserve">
<path fill="#076AAB" d="M11,0.086c-5.897,0-10.678,4.78-10.678,10.68c0,4.716,3.058,8.717,7.302,10.131
	c0.535,0.097,0.729-0.233,0.729-0.515c0-0.253-0.008-0.925-0.015-1.816c-2.97,0.645-3.596-1.431-3.596-1.431
	c-0.486-1.233-1.186-1.561-1.186-1.561c-0.969-0.664,0.074-0.65,0.074-0.65c1.072,0.076,1.636,1.1,1.636,1.1
	c0.952,1.632,2.499,1.159,3.108,0.887c0.096-0.691,0.372-1.159,0.677-1.427c-2.371-0.268-4.864-1.187-4.864-5.278
	c0-1.164,0.417-2.118,1.098-2.864C5.177,7.07,4.811,5.985,5.391,4.514c0,0,0.895-0.287,2.936,1.095
	c0.852-0.237,1.766-0.356,2.673-0.36c0.907,0.004,1.821,0.123,2.672,0.36c2.04-1.382,2.935-1.095,2.935-1.095
	c0.582,1.471,0.215,2.556,0.105,2.827c0.683,0.746,1.098,1.7,1.098,2.864c0,4.103-2.498,5.006-4.876,5.27
	c0.383,0.33,0.725,0.98,0.725,1.977c0,1.428-0.013,2.579-0.013,2.929c0,0.285,0.193,0.617,0.735,0.512
	c4.239-1.413,7.296-5.413,7.296-10.127C21.678,4.866,16.899,0.086,11,0.086"/>
</svg>
