<?xml version="1.0" encoding="utf-8"?>
<!-- Generator: Adobe Illustrator 18.0.0, SVG Export Plug-In . SVG Version: 6.00 Build 0)  -->
<!DOCTYPE svg PUBLIC "-//W3C//DTD SVG 1.1//EN" "http://www.w3.org/Graphics/SVG/1.1/DTD/svg11.dtd">
<svg version="1.1" id="Layer_1" xmlns="http://www.w3.org/2000/svg" xmlns:xlink="http://www.w3.org/1999/xlink" x="0px" y="0px"
	 viewBox="0 0 21 17" enable-background="new 0 0 21 17" xml:space="preserve">
<g>
	<path fill="#076AAB" d="M20.746,2.144c-0.754,0.335-1.565,0.561-2.415,0.662c0.868-0.52,1.536-1.344,1.849-2.326
		c-0.811,0.482-1.711,0.832-2.669,1.021c-0.768-0.818-1.861-1.328-3.07-1.328c-2.322,0-4.204,1.883-4.204,4.204
		c0,0.33,0.037,0.65,0.109,0.958C6.852,5.161,3.754,3.487,1.68,0.942C1.319,1.564,1.111,2.286,1.111,3.057
		c0,1.458,0.742,2.746,1.87,3.499C2.292,6.535,1.644,6.344,1.077,6.03v0.053c0,2.037,1.45,3.736,3.372,4.123
		c-0.352,0.096-0.725,0.148-1.108,0.148c-0.27,0-0.535-0.027-0.791-0.076c0.535,1.671,2.087,2.886,3.927,2.921
		c-1.438,1.127-3.251,1.8-5.222,1.8c-0.339,0-0.673-0.021-1.002-0.059c1.86,1.192,4.07,1.888,6.446,1.888
		c7.733,0,11.962-6.405,11.962-11.962c0-0.182-0.005-0.363-0.012-0.545C19.469,3.728,20.181,2.988,20.746,2.144z"/>
</g>
</svg>
