<?xml version="1.0" encoding="utf-8"?>
<!-- Generator: Adobe Illustrator 18.0.0, SVG Export Plug-In . SVG Version: 6.00 Build 0)  -->
<!DOCTYPE svg PUBLIC "-//W3C//DTD SVG 1.1//EN" "http://www.w3.org/Graphics/SVG/1.1/DTD/svg11.dtd">
<svg version="1.1" id="Layer_1" xmlns="http://www.w3.org/2000/svg" xmlns:xlink="http://www.w3.org/1999/xlink" x="0px" y="0px"
	 viewBox="0 0 30 25" enable-background="new 0 0 30 25" xml:space="preserve">
<g>
	<g>
		<path fill="#076AAB" d="M3.187,21.884c6.445,0,12.763,0,19.272,0c-0.188-2.723-0.43-5.468,3.029-6.565
			c0,2.754,0.066,5.525-0.031,8.29c-0.041,1.17-1.009,1.394-2.053,1.391c-6.025-0.018-12.051-0.009-18.076-0.009
			c-1.195,0-2.389,0-3.584-0.004c-1.153-0.004-1.734-0.616-1.736-1.737c-0.011-5.501-0.012-11.001,0.003-16.502
			c0.003-1.127,0.632-1.725,1.759-1.73c2.851-0.013,5.701-0.004,8.601-0.004C8.65,7.624,6.336,8.71,3.187,7.926
			C3.187,12.697,3.187,17.227,3.187,21.884z"/>
		<path fill="#076AAB" d="M19.938,4.538c0-1.437,0-2.779,0-4.538C23.41,2.612,26.637,5.04,30,7.57
			c-3.358,2.503-6.57,4.897-10.027,7.473c0-1.806,0-3.285,0-4.872c-5.754-0.488-9.569,2.201-12.349,7.333
			C7.84,10.035,11.996,5.782,19.938,4.538z"/>
	</g>
</g>
</svg>
