<?xml version="1.0" encoding="utf-8"?>
<!-- Generator: Adobe Illustrator 18.0.0, SVG Export Plug-In . SVG Version: 6.00 Build 0)  -->
<!DOCTYPE svg PUBLIC "-//W3C//DTD SVG 1.1//EN" "http://www.w3.org/Graphics/SVG/1.1/DTD/svg11.dtd">
<svg version="1.1" id="Layer_1" xmlns="http://www.w3.org/2000/svg" xmlns:xlink="http://www.w3.org/1999/xlink" x="0px" y="0px"
	 viewBox="0 0 1280 1280" enable-background="new 0 0 1280 1280" xml:space="preserve">
<g>
	<path fill="#222222" d="M879.718,308.173c-36.762-0.051-73.523,0.102-110.285-0.051c-23.296-1.485-47.258,16.23-51.507,39.322
		c-0.563,40.141-0.205,80.333-0.154,120.474c53.914,0.256,107.878-0.051,161.741,0.154c-3.942,58.112-11.162,115.917-19.61,173.517
		c-47.616,0.461-95.283-0.051-142.899,0.256c-0.41,171.366,0.205,338.586-0.358,509.952c-70.758,0.307-141.568-0.103-212.275,0.205
		c-1.331-171.366,0.102-338.739-0.768-510.106c-34.509-0.358-69.069,0.256-103.578-0.307c0.154-57.6,0.051-115.2,0.051-172.8
		c34.509-0.41,69.018,0.102,103.475-0.256c1.075-56.013-1.024-112.077,1.075-168.038c3.43-44.288,20.326-88.934,53.504-119.552
		c40.141-38.144,97.178-51.046,150.989-52.634c56.883-0.512,113.766-0.205,170.65-0.154
		C879.974,188.109,880.026,248.166,879.718,308.173z"/>
</g>
</svg>
