<?xml version="1.0" encoding="utf-8"?>
<!-- Generator: Adobe Illustrator 18.0.0, SVG Export Plug-In . SVG Version: 6.00 Build 0)  -->
<!DOCTYPE svg PUBLIC "-//W3C//DTD SVG 1.1//EN" "http://www.w3.org/Graphics/SVG/1.1/DTD/svg11.dtd">
<svg version="1.1" id="Layer_1" xmlns="http://www.w3.org/2000/svg" xmlns:xlink="http://www.w3.org/1999/xlink" x="0px" y="0px"
	 viewBox="0 0 1 1" enable-background="new 0 0 1 1" xml:space="preserve">
<path fill="#009EFF" d="M0.5,0.027c-0.268,0-0.485,0.217-0.485,0.485c0,0.214,0.139,0.396,0.332,0.46
	C0.371,0.977,0.38,0.962,0.38,0.949c0-0.012,0-0.042-0.001-0.083c-0.135,0.03-0.163-0.064-0.163-0.064
	C0.193,0.746,0.162,0.731,0.162,0.731c-0.044-0.03,0.003-0.03,0.003-0.03c0.049,0.003,0.074,0.05,0.074,0.05
	c0.043,0.074,0.114,0.053,0.141,0.04C0.385,0.76,0.398,0.739,0.411,0.727C0.304,0.714,0.19,0.673,0.19,0.487
	c0-0.053,0.019-0.096,0.05-0.13C0.235,0.344,0.219,0.295,0.245,0.228c0,0,0.041-0.013,0.133,0.05C0.417,0.267,0.459,0.262,0.5,0.261
	c0.041,0,0.083,0.006,0.121,0.016c0.093-0.063,0.133-0.05,0.133-0.05c0.026,0.067,0.01,0.116,0.005,0.128
	c0.031,0.034,0.05,0.077,0.05,0.13c0,0.187-0.114,0.228-0.222,0.24C0.604,0.74,0.62,0.77,0.62,0.815
	c0,0.065-0.001,0.117-0.001,0.133c0,0.013,0.009,0.028,0.033,0.023c0.193-0.064,0.332-0.246,0.332-0.46
	C0.985,0.244,0.768,0.027,0.5,0.027"/>
</svg>
