<?xml version="1.0" encoding="utf-8"?>
<!-- Generator: Adobe Illustrator 18.0.0, SVG Export Plug-In . SVG Version: 6.00 Build 0)  -->
<!DOCTYPE svg PUBLIC "-//W3C//DTD SVG 1.1//EN" "http://www.w3.org/Graphics/SVG/1.1/DTD/svg11.dtd">
<svg version="1.1" id="Layer_1" xmlns="http://www.w3.org/2000/svg" xmlns:xlink="http://www.w3.org/1999/xlink" x="0px" y="0px"
	 viewBox="0 0 1 1" enable-background="new 0 0 1 1" xml:space="preserve">
<g>
	<path fill="#FFFFFF" d="M0.988,0.197C0.952,0.213,0.913,0.224,0.873,0.229c0.041-0.025,0.073-0.064,0.088-0.111
		c-0.039,0.023-0.081,0.04-0.127,0.049C0.797,0.128,0.745,0.103,0.688,0.103c-0.111,0-0.2,0.09-0.2,0.2
		c0,0.016,0.002,0.031,0.005,0.046C0.326,0.341,0.179,0.261,0.08,0.14C0.063,0.17,0.053,0.204,0.053,0.241
		c0,0.069,0.035,0.131,0.089,0.167c-0.033-0.001-0.064-0.01-0.091-0.025v0.003c0,0.097,0.069,0.178,0.161,0.196
		C0.195,0.586,0.177,0.588,0.159,0.588c-0.013,0-0.025-0.001-0.038-0.004c0.025,0.08,0.099,0.137,0.187,0.139
		C0.24,0.777,0.154,0.809,0.06,0.809c-0.016,0-0.032-0.001-0.048-0.003c0.089,0.057,0.194,0.09,0.307,0.09
		c0.368,0,0.57-0.305,0.57-0.57c0-0.009,0-0.017-0.001-0.026C0.927,0.273,0.961,0.238,0.988,0.197z"/>
</g>
</svg>
