<?xml version="1.0" encoding="utf-8"?>
<!-- Generator: Adobe Illustrator 18.0.0, SVG Export Plug-In . SVG Version: 6.00 Build 0)  -->
<!DOCTYPE svg PUBLIC "-//W3C//DTD SVG 1.1//EN" "http://www.w3.org/Graphics/SVG/1.1/DTD/svg11.dtd">
<svg version="1.1" id="Layer_1" xmlns="http://www.w3.org/2000/svg" xmlns:xlink="http://www.w3.org/1999/xlink" x="0px" y="0px"
	 viewBox="0 0 1280 1280" enable-background="new 0 0 1280 1280" xml:space="preserve">
<g>
	<path fill="#222222" d="M1264.518,252.587c-45.958,20.419-95.391,34.194-147.2,40.35c52.907-31.695,93.623-81.92,112.701-141.775
		c-49.432,29.379-104.29,50.712-162.682,62.232c-46.811-49.859-113.432-80.945-187.124-80.945
		c-141.531,0-256.244,114.773-256.244,256.244c0,20.114,2.255,39.619,6.644,58.392C417.646,436.48,228.815,334.446,102.4,179.322
		c-22.004,37.912-34.682,81.92-34.682,128.914c0,88.869,45.227,167.375,113.981,213.272c-41.996-1.28-81.493-12.922-116.053-32.061
		v3.23c0,124.16,88.381,227.718,205.531,251.307c-21.455,5.851-44.19,9.021-67.535,9.021c-16.457,0-32.61-1.646-48.213-4.632
		c32.61,101.851,127.208,175.909,239.36,178.042c-87.65,68.693-198.156,109.714-318.293,109.714c-20.663,0-41.021-1.28-61.074-3.596
		c113.371,72.655,248.076,115.078,392.899,115.078c471.345,0,729.112-390.4,729.112-729.112c0-11.093-0.305-22.126-0.731-33.219
		C1186.682,349.135,1230.08,304.03,1264.518,252.587z"/>
</g>
</svg>
