<?xml version="1.0" encoding="utf-8"?>
<!-- Generator: Adobe Illustrator 18.0.0, SVG Export Plug-In . SVG Version: 6.00 Build 0)  -->
<!DOCTYPE svg PUBLIC "-//W3C//DTD SVG 1.1//EN" "http://www.w3.org/Graphics/SVG/1.1/DTD/svg11.dtd">
<svg version="1.1" id="Layer_1" xmlns="http://www.w3.org/2000/svg" xmlns:xlink="http://www.w3.org/1999/xlink" x="0px" y="0px"
	 viewBox="0 0 1 1" enable-background="new 0 0 1 1" xml:space="preserve">
<g>
	<path fill="#FFFFFF" d="M0.687,0.241c-0.029,0-0.057,0-0.086,0C0.583,0.24,0.564,0.253,0.561,0.271c0,0.031,0,0.063,0,0.094
		c0.042,0,0.084,0,0.126,0C0.684,0.411,0.678,0.456,0.672,0.501c-0.037,0-0.074,0-0.112,0c0,0.134,0,0.265,0,0.398
		c-0.055,0-0.111,0-0.166,0c-0.001-0.134,0-0.265-0.001-0.399c-0.027,0-0.054,0-0.081,0c0-0.045,0-0.09,0-0.135
		c0.027,0,0.054,0,0.081,0c0.001-0.044-0.001-0.088,0.001-0.131C0.397,0.2,0.41,0.165,0.436,0.141
		c0.031-0.03,0.076-0.04,0.118-0.041c0.044,0,0.089,0,0.133,0C0.687,0.147,0.688,0.194,0.687,0.241z"/>
</g>
</svg>
