<?xml version="1.0" encoding="utf-8"?>
<!-- Generator: Adobe Illustrator 18.0.0, SVG Export Plug-In . SVG Version: 6.00 Build 0)  -->
<!DOCTYPE svg PUBLIC "-//W3C//DTD SVG 1.1//EN" "http://www.w3.org/Graphics/SVG/1.1/DTD/svg11.dtd">
<svg version="1.1" id="Layer_1" xmlns="http://www.w3.org/2000/svg" xmlns:xlink="http://www.w3.org/1999/xlink" x="0px" y="0px"
	 viewBox="0 0 25 20" enable-background="new 0 0 25 20" xml:space="preserve">
<g>
	<path fill="#086BAB" d="M17.182,3.519c-0.718-0.001-1.436,0.002-2.154-0.001c-0.455-0.029-0.923,0.317-1.006,0.768
		c-0.011,0.784-0.004,1.569-0.003,2.353c1.053,0.005,2.107-0.001,3.159,0.003c-0.077,1.135-0.218,2.264-0.383,3.389
		c-0.93,0.009-1.861-0.001-2.791,0.005c-0.008,3.347,0.004,6.613-0.007,9.96c-1.382,0.006-2.765-0.002-4.146,0.004
		c-0.026-3.347,0.002-6.616-0.015-9.963c-0.674-0.007-1.349,0.005-2.023-0.006c0.003-1.125,0.001-2.25,0.001-3.375
		c0.674-0.008,1.348,0.002,2.021-0.005c0.021-1.094-0.02-2.189,0.021-3.282c0.067-0.865,0.397-1.737,1.045-2.335
		c0.784-0.745,1.898-0.997,2.949-1.028c1.111-0.01,2.222-0.004,3.333-0.003C17.187,1.174,17.188,2.347,17.182,3.519z"/>
</g>
</svg>
